<svg width="26" height="26" viewBox="0 0 26 26" fill="none" xmlns="http://www.w3.org/2000/svg">
<path d="M16.6693 11.8906L12.4066 9.04793C12.2057 8.91383 11.972 8.83687 11.7307 8.82527C11.4893 8.81367 11.2494 8.86786 11.0365 8.98206C10.8235 9.09626 10.6456 9.26617 10.5218 9.47364C10.3979 9.6811 10.3328 9.91832 10.3333 10.1599V15.8439C10.3333 16.0853 10.3988 16.3222 10.5228 16.5293C10.6469 16.7364 10.8248 16.9059 11.0376 17.0198C11.2505 17.1336 11.4902 17.1876 11.7313 17.1759C11.9724 17.1642 12.2058 17.0872 12.4066 16.9533L16.6693 14.1106C16.8519 13.9888 17.0017 13.8239 17.1052 13.6304C17.2088 13.4368 17.2629 13.2207 17.2629 13.0013C17.2629 12.7818 17.2088 12.5657 17.1052 12.3722C17.0017 12.1787 16.8519 12.0124 16.6693 11.8906Z" stroke="url(#paint0_linear_24_5)" stroke-width="2" stroke-linecap="round" stroke-linejoin="round"/>
<path d="M25 13C25 14.5759 24.6896 16.1363 24.0866 17.5922C23.4835 19.0481 22.5996 20.371 21.4853 21.4853C20.371 22.5996 19.0481 23.4835 17.5922 24.0866C16.1363 24.6896 14.5759 25 13 25C11.4241 25 9.86371 24.6896 8.4078 24.0866C6.95189 23.4835 5.62902 22.5996 4.51472 21.4853C3.40042 20.371 2.5165 19.0481 1.91345 17.5922C1.31039 16.1363 1 14.5759 1 13C1 9.8174 2.26428 6.76516 4.51472 4.51472C6.76516 2.26428 9.8174 1 13 1C16.1826 1 19.2348 2.26428 21.4853 4.51472C23.7357 6.76516 25 9.8174 25 13Z" stroke="url(#paint1_linear_24_5)" stroke-width="2" stroke-linecap="round" stroke-linejoin="round"/>
<defs>
<linearGradient id="paint0_linear_24_5" x1="10.8747" y1="8.82373" x2="16.5592" y2="8.82373" gradientUnits="userSpaceOnUse">
<stop stop-color="#3467AE"/>
<stop offset="1" stop-color="#0C4969"/>
</linearGradient>
<linearGradient id="paint1_linear_24_5" x1="2.87499" y1="1" x2="22.5625" y2="1" gradientUnits="userSpaceOnUse">
<stop stop-color="#3467AE"/>
<stop offset="1" stop-color="#0C4969"/>
</linearGradient>
</defs>
</svg>
